<?xml version="1.0" encoding="UTF-8" standalone="no"?>
<!-- Created with Inkscape (http://www.inkscape.org/) -->

<svg
   width="500"
   height="500"
   viewBox="0 0 132.29166 132.29167"
   version="1.1"
   id="svg5"
   xml:space="preserve"
   xmlns="http://www.w3.org/2000/svg"
   xmlns:svg="http://www.w3.org/2000/svg"><defs
     id="defs2" /><g
     id="layer1"><path
       style="fill:#000000;stroke-width:0.298328"
       d="M 60.647136,122.40586 C 31.569579,101.61845 11.997102,80.418025 3.7639784,60.791414 -0.33544759,51.018963 -1.0870216,41.456656 1.5128154,32.149863 4.3636454,21.94458 12.000014,12.616197 20.851082,8.5267487 27.081635,5.6480567 34.659854,5.4579057 42.114,7.9932237 49.302528,10.438199 56.549715,15.014215 62.995141,21.177996 l 3.134879,2.997893 2.3842,-2.249892 C 88.21,3.3397427 107.81935,1.1489887 121.63394,15.991475 c 6.98431,7.503988 10.63519,16.924914 10.6576,27.501418 0.0139,6.561448 -1.13388,11.596163 -4.25131,18.648295 -7.88457,17.836115 -24.76775,36.654179 -49.68358,55.377462 -3.05862,2.29843 -10.92597,7.91567 -11.97063,8.54693 -0.18549,0.11208 -2.75443,-1.52614 -5.738884,-3.65972 z"
       id="path302" /></g></svg>
